<svg width="401" height="601" viewBox="0 0 401 601" fill="none" xmlns="http://www.w3.org/2000/svg">
<path d="M298.37 517.949C294.271 517.714 287.672 516.703 271.388 518.048C245.939 520.15 217.368 511.608 193.916 501.668C166.863 490.202 128.83 494.881 101.026 502.493C76.1476 509.305 47.4522 506.636 31.1957 484.068C7.64608 451.375 38.4945 402.68 46.7012 368.941C59.8083 315.056 54.8917 257.905 49.5266 203.353C47.1713 179.404 42.5302 155.255 42.6889 131.155C42.8024 113.922 43.6224 96.6742 43.6224 79.4469H216.09C215.539 81.0768 214.458 87.1901 214.395 88.8611C208.657 184.353 153.219 285.408 178.245 382.771C182.849 400.682 206.825 410.125 221.299 419.114C244.288 433.389 266.97 460.44 294.039 467.687C306.365 470.987 315.026 470.594 323.6 474.465C329.741 477.238 341.634 484.459 346.382 485.951C355.392 488.782 377.892 494.065 379.143 506.662C379.808 513.358 369.372 517.201 364.645 517.949C359.095 518.826 353.537 515.162 350.901 517.319C342.66 524.063 325.981 522.289 315.503 522.289C310.116 522.289 302.504 518.185 298.37 517.949Z" fill="#F8EDD1"/>
<path d="M95.9981 418.37C96.4895 419.885 98.4286 422.317 103.298 428.023C104.698 429.664 106.117 431.563 108.086 432.558C109.591 433.319 112.617 432.335 119.41 432.023C123.171 431.851 123.79 435.76 125.315 438.505C126.35 440.368 128.503 443.099 131.129 446.233C135.77 451.77 138.913 455.745 138.911 458.483C138.909 460.885 137.67 463.525 136.365 464.636C135.141 465.679 129.284 465.284 123.994 465.84C117.32 466.541 110.626 467.365 103.929 467.767C98.0799 468.119 93.397 474.095 89.3726 477.822C87.1601 479.871 83.7242 482.903 81.1929 485.009C77.2253 488.312 75.0909 489.512 73.7518 489.865C56.5893 494.386 42.789 473.615 40.2388 458.907C38.9625 451.547 41.6166 444.162 42.1674 436.898C42.6781 430.163 49.4785 422.46 54.774 418.487C60.0571 418.496 64.4289 422.113 69.382 423.116C77.8325 424.828 82.8448 414.289 90.3292 412.376C93.0845 411.672 95.3762 416.453 95.9981 418.37Z" fill="#E5E5EA"/>
<path d="M141.489 390.883C143.813 390.762 145.782 391.397 146.68 393.415C147.74 395.797 148.246 397.531 148.653 398.774C149.067 400.038 149.358 400.709 149.939 401.14C151.686 402.436 160.493 405.839 159.548 408.823C156.691 417.843 149.38 424.772 147.134 434.046C146.1 438.316 145.752 449.159 140.732 450.337C136.631 451.299 132.45 445.441 130.466 442.686C129.444 441.266 128.684 439.998 128.41 439.312C127.284 436.491 126.228 432.796 123.965 430.601C122.305 428.991 118.956 430.174 116.966 430.36C106.293 431.361 100.317 415.653 94.4837 409.045C99.6357 406.577 104.34 402.24 110.158 401.44C113.721 400.95 117.496 400.57 120.447 399.396C121.409 399.013 123.279 397.995 125.646 396.767C130.467 394.265 135.943 391.171 141.489 390.883Z" fill="#E5E5EA"/>
<path d="M164.312 408.754C163.943 409.214 158.383 415.203 156.781 419.487C154.99 424.274 154.707 423.859 153.665 425.478C150.194 430.873 145.654 448.73 146.367 455.141C147.054 461.313 155.812 458.324 158.573 459.375C165.49 462.01 164.449 453.143 166.178 448.773C167.271 446.012 171.375 443.112 174.36 440.593C176.661 438.651 186.752 420.368 183.442 418.59C177.87 415.598 169.96 411.202 164.312 408.754Z" fill="#E5E5EA"/>
<path d="M160.173 476.57C160.212 475.139 160.771 471.087 163.212 465.717L163.36 465.393C166.006 459.57 167.904 455.394 169.019 452.624C170.157 449.796 171.843 449.047 174.049 447.541C176.602 445.797 177.537 445.937 184.345 446.959L184.458 446.976C188.224 447.541 194.938 452.047 195.871 453.754C197.54 456.81 198.768 457.896 196.885 465.239C196.305 467.503 194.411 471.369 192.257 476.609C190.006 482.088 190.06 481.827 188.412 483.315C186.171 485.338 178.785 483.248 174.049 480.406C164.08 477.405 161.91 476.613 160.173 476.57Z" fill="#E5E5EA"/>
<path d="M200.086 466.181C199.033 466.932 197.085 474.053 195.944 479.173C195.718 480.187 195.612 482.967 195.944 483.315C199.521 487.081 208.688 486.643 211.195 489.529C212.177 490.66 216.355 492.558 217.802 492.918C218.914 493.195 222.059 492.513 222.303 491.223C223.337 485.763 222.483 490.627 223.998 484.068C225.346 478.231 231.099 472.565 231.041 471.677C230.985 470.816 230.149 468.762 229.081 467.942C228.538 467.525 223.992 465.329 219.667 465.24C215.342 465.151 213.313 463.059 208.935 464.11C204.228 465.24 201.404 465.24 200.086 466.181Z" fill="#E5E5EA"/>
<path d="M202.345 457.896C200.992 457.232 199.871 453.959 198.58 451.871C195.031 446.135 187.137 443.792 180.881 443.21C176.199 442.775 187.142 422.514 191.99 422.311C198.667 422.031 208.039 429.855 213.831 433.231C214.703 433.74 215.515 441.014 211.76 443.21C205.143 447.079 207.618 456.293 206.299 457.896C205.663 458.47 203 458.217 202.345 457.896Z" fill="#E5E5EA"/>
<path d="M0.5 0.5H400.5V600.5H0.5V0.5Z" stroke="black" stroke-linecap="round"/>
<path d="M298.37 517.949C294.271 517.714 287.672 516.703 271.388 518.048C245.939 520.15 217.368 511.608 193.916 501.668C166.863 490.202 128.83 494.881 101.026 502.493C76.1476 509.305 47.4522 506.636 31.1957 484.068C7.64608 451.375 38.4945 402.68 46.7012 368.941C59.8083 315.056 54.8917 257.905 49.5266 203.353C47.1713 179.404 42.5302 155.255 42.6889 131.155C42.8024 113.922 43.6224 96.6742 43.6224 79.4469H216.09C215.539 81.0768 214.458 87.1901 214.395 88.8611C208.657 184.353 153.219 285.408 178.245 382.771C182.849 400.682 206.825 410.125 221.299 419.114C244.288 433.389 266.97 460.44 294.039 467.687C306.365 470.987 315.026 470.594 323.6 474.465C329.741 477.238 341.634 484.459 346.382 485.951C355.392 488.782 377.892 494.065 379.143 506.662C379.808 513.358 369.372 517.201 364.645 517.949C359.095 518.826 353.537 515.162 350.901 517.319C342.66 524.063 325.981 522.289 315.503 522.289C310.116 522.289 302.504 518.185 298.37 517.949Z" stroke="black" stroke-linecap="round"/>
<path d="M95.9981 418.37C96.4895 419.885 98.4286 422.317 103.298 428.023C104.698 429.664 106.117 431.563 108.086 432.558C109.591 433.319 112.617 432.335 119.41 432.023C123.171 431.851 123.79 435.76 125.315 438.505C126.35 440.368 128.503 443.099 131.129 446.233C135.77 451.77 138.913 455.745 138.911 458.483C138.909 460.885 137.67 463.525 136.365 464.636C135.141 465.679 129.284 465.284 123.994 465.84C117.32 466.541 110.626 467.365 103.929 467.767C98.0799 468.119 93.397 474.095 89.3726 477.822C87.1601 479.871 83.7242 482.903 81.1929 485.009C77.2253 488.312 75.0909 489.512 73.7518 489.865C56.5893 494.386 42.789 473.615 40.2388 458.907C38.9625 451.547 41.6166 444.162 42.1674 436.898C42.6781 430.163 49.4785 422.46 54.774 418.487C60.0571 418.496 64.4289 422.113 69.382 423.116C77.8325 424.828 82.8448 414.289 90.3292 412.376C93.0845 411.672 95.3762 416.453 95.9981 418.37Z" stroke="black" stroke-linecap="round"/>
<path d="M141.489 390.883C143.813 390.762 145.782 391.397 146.68 393.415C147.74 395.797 148.246 397.531 148.653 398.774C149.067 400.038 149.358 400.709 149.939 401.14C151.686 402.436 160.493 405.839 159.548 408.823C156.691 417.843 149.38 424.772 147.134 434.046C146.1 438.316 145.752 449.159 140.732 450.337C136.631 451.299 132.45 445.441 130.466 442.686C129.444 441.266 128.684 439.998 128.41 439.312C127.284 436.491 126.228 432.796 123.965 430.601C122.305 428.991 118.956 430.174 116.966 430.36C106.293 431.361 100.317 415.653 94.4837 409.045C99.6357 406.577 104.34 402.24 110.158 401.44C113.721 400.95 117.496 400.57 120.447 399.396C121.409 399.013 123.279 397.995 125.646 396.767C130.467 394.265 135.943 391.171 141.489 390.883Z" stroke="black" stroke-linecap="round"/>
<path d="M164.312 408.754C163.943 409.214 158.383 415.203 156.781 419.487C154.99 424.274 154.707 423.859 153.665 425.478C150.194 430.873 145.654 448.73 146.367 455.141C147.054 461.313 155.812 458.324 158.573 459.375C165.49 462.01 164.449 453.143 166.178 448.773C167.271 446.012 171.375 443.112 174.36 440.593C176.661 438.651 186.752 420.368 183.442 418.59C177.87 415.598 169.96 411.202 164.312 408.754Z" stroke="black" stroke-linecap="round"/>
<path d="M160.173 476.57C160.212 475.139 160.771 471.087 163.212 465.717L163.36 465.393C166.006 459.57 167.904 455.394 169.019 452.624C170.157 449.796 171.843 449.047 174.049 447.541C176.602 445.797 177.537 445.937 184.345 446.959L184.458 446.976C188.224 447.541 194.938 452.047 195.871 453.754C197.54 456.81 198.768 457.896 196.885 465.239C196.305 467.503 194.411 471.369 192.257 476.609C190.006 482.088 190.06 481.827 188.412 483.315C186.171 485.338 178.785 483.248 174.049 480.406C164.08 477.405 161.91 476.613 160.173 476.57Z" stroke="black" stroke-linecap="round"/>
<path d="M200.086 466.181C199.033 466.932 197.085 474.053 195.944 479.173C195.718 480.187 195.612 482.967 195.944 483.315C199.521 487.081 208.688 486.643 211.195 489.529C212.177 490.66 216.355 492.558 217.802 492.918C218.914 493.195 222.059 492.513 222.303 491.223C223.337 485.763 222.483 490.627 223.998 484.068C225.346 478.231 231.099 472.565 231.041 471.677C230.985 470.816 230.149 468.762 229.081 467.942C228.538 467.525 223.992 465.329 219.667 465.24C215.342 465.151 213.313 463.059 208.935 464.11C204.228 465.24 201.404 465.24 200.086 466.181Z" stroke="black" stroke-linecap="round"/>
<path d="M202.345 457.896C200.992 457.232 199.871 453.959 198.58 451.871C195.031 446.135 187.137 443.792 180.881 443.21C176.199 442.775 187.142 422.514 191.99 422.311C198.667 422.031 208.039 429.855 213.831 433.231C214.703 433.74 215.515 441.014 211.76 443.21C205.143 447.079 207.618 456.293 206.299 457.896C205.663 458.47 203 458.217 202.345 457.896Z" stroke="black" stroke-linecap="round"/>
</svg>
